<svg width="228" height="48" viewBox="0 0 228 48" fill="none" xmlns="http://www.w3.org/2000/svg">
<path d="M80.0997 33.907C75.7568 33.907 73.5854 30.8265 73.5854 24.6654C73.5854 18.5042 75.7568 15.4238 80.0997 15.4238C80.8468 15.4238 81.5068 15.5262 82.0801 15.731C82.6533 15.9358 83.1571 16.2089 83.5914 16.5502C84.0257 16.8914 84.3905 17.2926 84.6858 17.7534C84.9985 18.2142 85.2591 18.7006 85.4675 19.2126L84.1386 19.8014C83.9648 19.3746 83.7564 18.9737 83.5132 18.5982C83.2873 18.2226 83.0095 17.8985 82.6794 17.6254C82.3667 17.3522 81.9933 17.139 81.5589 16.9854C81.142 16.8318 80.6556 16.755 80.0997 16.755C78.4668 16.755 77.2509 17.3438 76.4517 18.5214C75.6526 19.6818 75.2531 21.3289 75.2531 23.4622V25.8686C75.2531 28.0018 75.6526 29.6574 76.4517 30.835C77.2509 31.9954 78.4668 32.5758 80.0997 32.5758C80.6556 32.5758 81.142 32.499 81.5589 32.3454C81.9933 32.1918 82.3667 31.9785 82.6794 31.7054C83.0095 31.4322 83.2873 31.1166 83.5132 30.7582C83.7564 30.3826 83.9648 29.973 84.1386 29.5294L85.4675 30.1182C85.2591 30.6302 84.9985 31.1166 84.6858 31.5774C84.3905 32.0382 84.0257 32.4393 83.5914 32.7806C83.1571 33.1218 82.6533 33.395 82.0801 33.5998C81.5068 33.8046 80.8468 33.907 80.0997 33.907ZM99.7628 33.5998C99.1547 33.5998 98.7205 33.4546 98.4599 33.1646C98.1994 32.8745 98.0516 32.4818 98.017 31.987V31.5262H97.8867C97.5912 32.2258 97.105 32.7977 96.4275 33.2414C95.75 33.685 94.8292 33.907 93.6654 33.907C92.2583 33.907 91.1465 33.5742 90.3301 32.9086C89.531 32.2258 89.1315 31.2702 89.1315 30.0414C89.1315 29.461 89.2269 28.9406 89.4181 28.4798C89.6266 28.0018 89.9479 27.6009 90.3822 27.2766C90.8338 26.9522 91.4071 26.7049 92.102 26.5342C92.7967 26.3465 93.648 26.2526 94.6556 26.2526H97.9388V24.6398C97.9388 23.5305 97.6261 22.7026 97.0007 22.1566C96.3926 21.6105 95.5415 21.3374 94.4471 21.3374C92.6057 21.3374 91.3203 22.0626 90.5907 23.5134L89.5744 22.7966C89.9218 22.0286 90.5037 21.3886 91.3203 20.8766C92.1541 20.3474 93.2224 20.083 94.5253 20.083C96.0539 20.083 97.2525 20.4754 98.1212 21.2606C98.9897 22.0286 99.424 23.1038 99.424 24.4862V32.3198H101.43V33.5998H99.7628ZM93.8999 32.6782C94.4732 32.6782 95.003 32.6098 95.4894 32.4734C95.9757 32.3369 96.4014 32.149 96.7662 31.9102C97.131 31.6542 97.4176 31.347 97.6261 30.9886C97.8346 30.6302 97.9388 30.229 97.9388 29.7854V27.3534H94.6556C93.2485 27.3534 92.2323 27.5666 91.6069 27.9934C90.9988 28.403 90.6949 28.9662 90.6949 29.683V30.3486C90.6949 31.1166 90.9815 31.6969 91.5548 32.0894C92.1453 32.4818 92.927 32.6782 93.8999 32.6782ZM105.694 20.3902H107.179V22.4894H107.257C107.639 21.7726 108.169 21.1922 108.846 20.7486C109.541 20.3049 110.401 20.083 111.426 20.083C113.111 20.083 114.423 20.6802 115.361 21.875C116.299 23.0526 116.768 24.7593 116.768 26.995C116.768 29.2306 116.299 30.9458 115.361 32.1406C114.423 33.3182 113.111 33.907 111.426 33.907C110.401 33.907 109.541 33.685 108.846 33.2414C108.169 32.7977 107.639 32.2174 107.257 31.5006H107.179V38.7198H105.694V20.3902ZM110.931 32.6014C112.286 32.6014 113.328 32.1833 114.058 31.347C114.805 30.5106 115.178 29.3673 115.178 27.9166V26.0734C115.178 24.6226 114.805 23.4793 114.058 22.643C113.328 21.8066 112.286 21.3886 110.931 21.3886C110.427 21.3886 109.949 21.4569 109.498 21.5934C109.046 21.7298 108.647 21.9262 108.299 22.1822C107.952 22.4382 107.674 22.7538 107.465 23.1294C107.274 23.5049 107.179 23.923 107.179 24.3838V29.6062C107.179 30.067 107.274 30.485 107.465 30.8606C107.674 31.2361 107.952 31.5518 108.299 31.8078C108.647 32.0638 109.046 32.2601 109.498 32.3966C109.949 32.533 110.427 32.6014 110.931 32.6014ZM127.181 16.8574C126.712 16.8574 126.373 16.7634 126.164 16.5758C125.973 16.371 125.878 16.1234 125.878 15.8334V15.5006C125.878 15.2104 125.973 14.9715 126.164 14.7838C126.373 14.579 126.712 14.4766 127.181 14.4766C127.65 14.4766 127.98 14.579 128.171 14.7838C128.379 14.9715 128.483 15.2104 128.483 15.5006V15.8334C128.483 16.1234 128.379 16.371 128.171 16.5758C127.98 16.7634 127.65 16.8574 127.181 16.8574ZM121.396 32.3454H126.451V21.6446H121.396V20.3902H127.936V32.3454H132.653V33.5998H121.396V32.3454ZM142.023 33.5998C141.293 33.5998 140.755 33.4121 140.407 33.0366C140.077 32.6441 139.912 32.1234 139.912 31.475V21.6446H135.144V20.3902H138.922C139.304 20.3902 139.574 20.3134 139.73 20.1598C139.886 20.0062 139.964 19.7417 139.964 19.3662V15.731H141.398V20.3902H147.808V21.6446H141.398V32.3454H147.808V33.5998H142.023ZM162.259 33.5998C161.651 33.5998 161.217 33.4546 160.956 33.1646C160.696 32.8745 160.548 32.4818 160.513 31.987V31.5262H160.383C160.088 32.2258 159.601 32.7977 158.924 33.2414C158.246 33.685 157.326 33.907 156.162 33.907C154.755 33.907 153.643 33.5742 152.827 32.9086C152.027 32.2258 151.628 31.2702 151.628 30.0414C151.628 29.461 151.723 28.9406 151.915 28.4798C152.123 28.0018 152.444 27.6009 152.879 27.2766C153.33 26.9522 153.904 26.7049 154.598 26.5342C155.293 26.3465 156.144 26.2526 157.152 26.2526H160.435V24.6398C160.435 23.5305 160.123 22.7026 159.497 22.1566C158.889 21.6105 158.038 21.3374 156.944 21.3374C155.102 21.3374 153.817 22.0626 153.087 23.5134L152.071 22.7966C152.418 22.0286 153 21.3886 153.817 20.8766C154.651 20.3474 155.719 20.083 157.022 20.083C158.55 20.083 159.749 20.4754 160.618 21.2606C161.486 22.0286 161.92 23.1038 161.92 24.4862V32.3198H163.927V33.5998H162.259ZM156.396 32.6782C156.97 32.6782 157.499 32.6098 157.986 32.4734C158.472 32.3369 158.898 32.149 159.263 31.9102C159.627 31.6542 159.914 31.347 160.123 30.9886C160.331 30.6302 160.435 30.229 160.435 29.7854V27.3534H157.152C155.745 27.3534 154.729 27.5666 154.103 27.9934C153.495 28.403 153.191 28.9662 153.191 29.683V30.3486C153.191 31.1166 153.478 31.6969 154.051 32.0894C154.642 32.4818 155.423 32.6782 156.396 32.6782ZM167.591 32.3454H172.49V15.9102H167.591V14.6558H173.975V32.3454H178.848V33.5998H167.591V32.3454ZM192.23 31.1422H192.048C191.891 31.5006 191.701 31.8505 191.474 32.1918C191.266 32.5161 190.997 32.8062 190.667 33.0622C190.354 33.3182 189.973 33.523 189.52 33.6766C189.069 33.8302 188.548 33.907 187.957 33.907C186.064 33.907 184.639 33.1134 183.683 31.5262C182.729 29.939 182.25 27.6946 182.25 24.7934C182.25 21.7554 182.797 19.4345 183.892 17.8302C184.986 16.2258 186.664 15.4238 188.921 15.4238C189.807 15.4238 190.58 15.5432 191.24 15.7822C191.917 16.021 192.491 16.3454 192.96 16.755C193.429 17.1474 193.82 17.6169 194.132 18.163C194.445 18.6921 194.697 19.2553 194.888 19.8526L192.256 20.723C192.118 20.3305 191.961 19.9634 191.787 19.6222C191.615 19.2638 191.396 18.9481 191.136 18.675C190.893 18.4018 190.589 18.1886 190.224 18.035C189.877 17.8814 189.452 17.8046 188.947 17.8046C187.68 17.8046 186.758 18.291 186.185 19.2638C185.63 20.2194 185.351 21.5166 185.351 23.155V25.9966C185.351 26.8158 185.413 27.5666 185.533 28.2494C185.656 28.9321 185.856 29.5209 186.133 30.0158C186.429 30.4937 186.802 30.869 187.253 31.1422C187.722 31.4153 188.287 31.5518 188.947 31.5518C190.007 31.5518 190.815 31.2446 191.37 30.6302C191.944 29.9986 192.23 29.1966 192.23 28.2238V26.611H188.712V24.4606H194.888V33.5998H192.23V31.1422ZM198.839 33.5998V15.731H205.64C207.377 15.731 208.697 16.2089 209.6 17.1646C210.521 18.1202 210.982 19.4345 210.982 21.107C210.982 22.7794 210.521 24.0937 209.6 25.0494C208.697 26.005 207.377 26.483 205.64 26.483H201.757V33.5998H198.839ZM201.757 24.1022H205.197C207.003 24.1022 207.907 23.283 207.907 21.6446V20.5438C207.907 18.9225 207.003 18.1118 205.197 18.1118H201.757V24.1022ZM221.551 18.1374V33.5998H218.633V18.1374H212.926V15.731H227.257V18.1374H221.551Z" fill="white"/>
<path d="M38.4541 47.9452H40.3369C40.7849 47.946 41.2253 47.8307 41.6134 47.6105C42.0015 47.3905 42.3236 47.0735 42.547 46.6919L43.4883 45.0903C42.9792 45.9593 42.2457 46.6811 41.3618 47.1823C40.4778 47.6836 39.4749 47.9468 38.4541 47.9452Z" fill="url(#paint0_linear_57_700)"/>
<path d="M12.0007 45.0898L12.9626 46.6916C13.1847 47.0684 13.5027 47.382 13.8854 47.6017C14.268 47.8214 14.7022 47.9396 15.1454 47.9449H17.0554C16.0313 47.95 15.0241 47.6884 14.1362 47.187C13.2484 46.6855 12.5116 45.962 12.0007 45.0898Z" fill="url(#paint1_linear_57_700)"/>
<path d="M54.9107 23.1195C54.926 23.216 55.0094 23.2888 55.1087 23.2888C55.24 23.2888 55.3344 23.1646 55.2847 23.0453C55.2429 22.9448 55.1944 22.847 55.1395 22.7527L48.8433 12.0298L54.198 21.1374C54.5587 21.7494 54.8002 22.4218 54.9107 23.1195Z" fill="url(#paint2_linear_57_700)"/>
<path d="M43.4883 2.92332L42.547 1.3216C42.3236 0.940004 42.0015 0.623153 41.6134 0.403091C41.2253 0.183029 40.7849 0.0675585 40.3369 0.0683659L38.4541 0.0683661C39.4749 0.0668307 40.4778 0.330009 41.3618 0.831304C42.2457 1.3326 42.9792 2.05425 43.4883 2.92332Z" fill="url(#paint3_linear_57_700)"/>
<path d="M1.28422 21.1374L1.96635 19.9512L0.342857 22.7526C0.118271 23.1334 -1.95815e-08 23.5657 0 24.0057C1.95815e-08 24.4459 0.118271 24.8782 0.342857 25.259L1.28422 26.8608C0.772252 25.9909 0.50269 25.0038 0.50269 23.9992C0.50269 22.9944 0.772252 22.0073 1.28422 21.1374Z" fill="url(#paint4_linear_57_700)"/>
<path d="M12.9626 1.32159L12.0281 2.92332C12.5366 2.05522 13.2691 1.33421 14.1518 0.832974C15.0344 0.331739 16.036 0.0680041 17.0555 0.0683597L15.1455 0.0683599C14.7023 0.0735687 14.2681 0.191816 13.8854 0.411512C13.5028 0.631206 13.1848 0.944813 12.9626 1.32159Z" fill="url(#paint5_linear_57_700)"/>
<path d="M54.1982 26.8609L55.1396 25.2592C55.1959 25.1627 55.2453 25.0627 55.2873 24.9597C55.3361 24.8398 55.2412 24.7163 55.1098 24.7163C55.0099 24.7163 54.9259 24.7894 54.9104 24.8865C54.7995 25.5817 54.5582 26.2513 54.1982 26.8609Z" fill="url(#paint6_linear_57_700)"/>
<path d="M25.3502 12.292C24.8413 12.292 24.3439 12.4403 23.9208 12.7183C23.4977 12.9962 23.1681 13.3912 22.9736 13.8532C22.7792 14.3153 22.7287 14.8237 22.8285 15.3139C22.9282 15.8042 23.1738 16.2544 23.5342 16.6075C23.8946 16.9606 24.3534 17.2006 24.8527 17.2974C25.352 17.3941 25.8692 17.3432 26.3391 17.1509C26.8089 16.9587 27.21 16.6337 27.4918 16.2174C27.7735 15.801 27.9232 15.3118 27.9219 14.8119C27.9201 14.1429 27.6484 13.502 27.1662 13.0296C26.6842 12.5573 26.0311 12.292 25.3502 12.292Z" fill="white"/>
<path d="M27.9151 33.2021C27.9151 31.8105 26.7668 30.6821 25.3502 30.6821C23.9337 30.6821 22.7854 31.8105 22.7854 33.2021C22.7854 34.5938 23.9337 35.722 25.3502 35.722C26.7668 35.722 27.9151 34.5938 27.9151 33.2021Z" fill="white"/>
<path d="M15.7731 21.4868C15.2658 21.4868 14.7699 21.6345 14.3482 21.9115C13.9264 22.1883 13.5976 22.5819 13.4035 23.0423C13.2094 23.5028 13.1586 24.0094 13.2575 24.4982C13.3565 24.987 13.6008 25.4361 13.9595 25.7884C14.3182 26.1409 14.7752 26.3809 15.2727 26.478C15.7703 26.5753 16.2861 26.5254 16.7546 26.3347C17.2233 26.1439 17.6239 25.8211 17.9057 25.4067C18.1876 24.9923 18.3381 24.5051 18.3381 24.0067C18.3381 23.3383 18.0677 22.6974 17.5868 22.2249C17.1057 21.7523 16.4533 21.4868 15.7731 21.4868Z" fill="white"/>
<path d="M12.0007 2.92258L1.97997 19.9651L1.28418 21.1381C0.774749 22.0062 0.506592 22.9907 0.506592 23.993C0.506592 24.9952 0.774749 25.9797 1.28418 26.8478L12.0007 45.0901C12.5115 45.9622 13.2483 46.6858 14.1362 47.1872C15.024 47.6886 16.0312 47.9502 17.0554 47.9451H38.4542C39.4748 47.9466 40.4778 47.6834 41.3618 47.1821C42.2458 46.6808 42.9793 45.9592 43.4884 45.0901L54.198 26.8613C54.8159 25.815 53.8466 24.7168 52.6156 24.7168H45.9244C43.5017 24.7168 41.2115 25.8024 39.7038 27.6654L34.8661 33.6435C34.798 33.7269 34.7119 33.7941 34.614 33.8405C34.5159 33.8869 34.4086 33.9112 34.3 33.9115H32.3122C30.5868 33.9115 29.183 35.3226 27.8087 36.3474C27.0089 36.9438 26.0107 37.225 25.0106 37.1357C24.0105 37.0462 23.0806 36.5926 22.4034 35.864C21.7263 35.1355 21.3507 34.1845 21.3507 33.1978C21.3507 32.2112 21.7263 31.2602 22.4034 30.5317C23.0806 29.803 24.0105 29.3494 25.0106 29.26C26.0107 29.1707 27.0089 29.4518 27.8087 30.0483C27.8189 30.056 27.829 30.0635 27.8391 30.0712C29.186 31.0955 30.5707 32.4842 32.2739 32.4842C33.3514 32.4842 34.3695 32.0006 35.0389 31.1712L35.1664 31.0134C37.2208 28.4678 35.3755 24.7168 32.0689 24.7168H22.6954C20.9731 24.7168 19.5715 26.125 18.1994 27.1477C17.4008 27.743 16.4044 28.0235 15.4062 27.9341C14.4079 27.8446 13.4796 27.3918 12.8037 26.6645C12.1278 25.9371 11.7531 24.9878 11.7531 24.003C11.7531 23.0181 12.1278 22.0688 12.8037 21.3416C13.4796 20.6142 14.4079 20.1614 15.4062 20.072C16.4044 19.9826 17.4008 20.263 18.1994 20.8582C19.5715 21.8811 20.9731 23.2893 22.6954 23.2893H35.3265C38.7527 23.2893 40.6623 19.4006 38.5304 16.7659C37.7539 15.8063 36.5743 15.2471 35.3265 15.2471H32.3224C30.623 15.2471 29.2672 16.6907 27.9943 17.7971C27.2396 18.4531 26.2627 18.8083 25.2551 18.7926C24.2475 18.7771 23.2822 18.392 22.5489 17.713C21.8155 17.0341 21.367 16.1101 21.2916 15.1229C21.2161 14.1357 21.519 13.1564 22.1409 12.3774C22.7627 11.5983 23.6586 11.0759 24.6525 10.9126C25.6464 10.7493 26.6666 10.957 27.5126 11.4949C28.9907 12.4347 30.4527 13.8197 32.2133 13.8197H37.6493C37.7591 13.82 37.8672 13.8443 37.9664 13.8906C38.0654 13.937 38.1529 14.0043 38.2222 14.0877L43.9411 21.1586C45.03 22.5048 46.6845 23.2893 48.4345 23.2893H52.609C53.844 23.2893 54.8171 22.188 54.198 21.1381L48.8433 12.0236L43.4884 2.90919C42.9793 2.04012 42.2458 1.31846 41.3618 0.817168C40.4778 0.315874 39.4748 0.0527024 38.4542 0.0542374L17.0554 0.0542384C16.0299 0.050503 15.0218 0.314016 14.1338 0.817911C13.2458 1.32181 12.5098 2.04806 12.0007 2.92258Z" fill="url(#paint7_linear_57_700)"/>
<defs>
<linearGradient id="paint0_linear_57_700" x1="38.4541" y1="46.5177" x2="43.4883" y2="46.5177" gradientUnits="userSpaceOnUse">
<stop stop-color="#307FDB"/>
<stop offset="1" stop-color="#10151E"/>
</linearGradient>
<linearGradient id="paint1_linear_57_700" x1="12.0007" y1="46.5174" x2="17.0554" y2="46.5174" gradientUnits="userSpaceOnUse">
<stop stop-color="#307FDB"/>
<stop offset="1" stop-color="#10151E"/>
</linearGradient>
<linearGradient id="paint2_linear_57_700" x1="48.8433" y1="17.6592" x2="55.3714" y2="17.6592" gradientUnits="userSpaceOnUse">
<stop stop-color="#307FDB"/>
<stop offset="1" stop-color="#10151E"/>
</linearGradient>
<linearGradient id="paint3_linear_57_700" x1="38.4541" y1="1.49584" x2="43.4883" y2="1.49584" gradientUnits="userSpaceOnUse">
<stop stop-color="#307FDB"/>
<stop offset="1" stop-color="#10151E"/>
</linearGradient>
<linearGradient id="paint4_linear_57_700" x1="-2.66866e-08" y1="23.4061" x2="1.96635" y2="23.4061" gradientUnits="userSpaceOnUse">
<stop stop-color="#307FDB"/>
<stop offset="1" stop-color="#10151E"/>
</linearGradient>
<linearGradient id="paint5_linear_57_700" x1="12.0281" y1="1.49584" x2="17.0555" y2="1.49584" gradientUnits="userSpaceOnUse">
<stop stop-color="#307FDB"/>
<stop offset="1" stop-color="#10151E"/>
</linearGradient>
<linearGradient id="paint6_linear_57_700" x1="54.1982" y1="25.7886" x2="55.3715" y2="25.7886" gradientUnits="userSpaceOnUse">
<stop stop-color="#307FDB"/>
<stop offset="1" stop-color="#10151E"/>
</linearGradient>
<linearGradient id="paint7_linear_57_700" x1="0.506592" y1="23.9997" x2="54.9348" y2="23.9997" gradientUnits="userSpaceOnUse">
<stop stop-color="#307FDB"/>
<stop offset="1" stop-color="#10151E"/>
</linearGradient>
</defs>
</svg>
