<svg width="85" height="85" viewBox="0 0 85 85" fill="none" xmlns="http://www.w3.org/2000/svg">
<path fill-rule="evenodd" clip-rule="evenodd" d="M82.7929 84.2066L65.9956 67.4093L67.4098 65.9951L84.2071 82.7924C84.5976 83.1829 84.5976 83.8161 84.2071 84.2066C83.8166 84.5971 83.1834 84.5971 82.7929 84.2066Z" fill="white"/>
<g filter="url(#filter0_b_23_201)">
<path d="M2.44709 25.4017C5.11876 14.0119 14.0119 5.11875 25.4017 2.44708C33.6272 0.517639 42.1876 0.517638 50.4131 2.44708C61.8029 5.11875 70.6961 14.0119 73.3677 25.4017C75.2972 33.6272 75.2972 42.1876 73.3677 50.4131C70.6961 61.8029 61.8029 70.6961 50.4131 73.3677C42.1876 75.2972 33.6272 75.2972 25.4017 73.3677C14.012 70.6961 5.11876 61.8029 2.44709 50.4132C0.517637 42.1876 0.517637 33.6272 2.44709 25.4017Z" fill="#D9D9D9" fill-opacity="0.07"/>
</g>
<g filter="url(#filter1_b_23_201)">
<path fill-rule="evenodd" clip-rule="evenodd" d="M50.1848 3.42066C42.1095 1.52645 33.7054 1.52645 25.63 3.42066C14.6101 6.00559 6.0056 14.6101 3.42066 25.63C1.52645 33.7054 1.52645 42.1095 3.42066 50.1848C6.0056 61.2047 14.6101 69.8092 25.63 72.3941C33.7054 74.2884 42.1095 74.2884 50.1848 72.3941C61.2047 69.8092 69.8092 61.2047 72.3941 50.1848C74.2884 42.1095 74.2884 33.7054 72.3941 25.63C69.8092 14.6101 61.2047 6.00559 50.1848 3.42066ZM25.1733 1.47351C33.549 -0.491169 42.2658 -0.491171 50.6415 1.47351C62.401 4.23191 71.5829 13.4138 74.3413 25.1733C76.306 33.549 76.306 42.2658 74.3413 50.6415C71.5829 62.401 62.401 71.5829 50.6415 74.3413C42.2658 76.306 33.549 76.306 25.1733 74.3413C13.4138 71.5829 4.23192 62.401 1.47351 50.6415C-0.491171 42.2658 -0.491171 33.549 1.47351 25.1733C4.23192 13.4138 13.4138 4.23191 25.1733 1.47351Z" fill="white"/>
</g>
<path fill-rule="evenodd" clip-rule="evenodd" d="M37.9072 24.9092C38.4595 24.9092 38.9072 25.3569 38.9072 25.9092V36.9072H49.9053C50.4576 36.9072 50.9053 37.3549 50.9053 37.9072C50.9053 38.4595 50.4576 38.9072 49.9053 38.9072H38.9072V49.9053C38.9072 50.4576 38.4595 50.9053 37.9072 50.9053C37.3549 50.9053 36.9072 50.4576 36.9072 49.9053V38.9072H25.9092C25.3569 38.9072 24.9092 38.4595 24.9092 37.9072C24.9092 37.3549 25.3569 36.9072 25.9092 36.9072H36.9072V25.9092C36.9072 25.3569 37.3549 24.9092 37.9072 24.9092Z" fill="white"/>
<defs>
<filter id="filter0_b_23_201" x="-3" y="-3" width="81.8147" height="81.8149" filterUnits="userSpaceOnUse" color-interpolation-filters="sRGB">
<feFlood flood-opacity="0" result="BackgroundImageFix"/>
<feGaussianBlur in="BackgroundImageFix" stdDeviation="2"/>
<feComposite in2="SourceAlpha" operator="in" result="effect1_backgroundBlur_23_201"/>
<feBlend mode="normal" in="SourceGraphic" in2="effect1_backgroundBlur_23_201" result="shape"/>
</filter>
<filter id="filter1_b_23_201" x="-4" y="-4" width="83.8147" height="83.8149" filterUnits="userSpaceOnUse" color-interpolation-filters="sRGB">
<feFlood flood-opacity="0" result="BackgroundImageFix"/>
<feGaussianBlur in="BackgroundImageFix" stdDeviation="2"/>
<feComposite in2="SourceAlpha" operator="in" result="effect1_backgroundBlur_23_201"/>
<feBlend mode="normal" in="SourceGraphic" in2="effect1_backgroundBlur_23_201" result="shape"/>
</filter>
</defs>
</svg>
