<svg width="29" height="29" viewBox="0 0 29 29" fill="none" xmlns="http://www.w3.org/2000/svg">
<circle cx="14.5" cy="14.5" r="14.5" fill="#FF7A00"/>
<circle cx="14.5" cy="14.5" r="13.5" fill="white"/>
<path d="M19.0939 11.498C18.9445 11.498 18.7888 11.547 18.675 11.659L13.5959 16.6722C13.446 16.8198 13.2955 16.7924 13.1777 16.6186L11.43 14.0402C11.2515 13.7771 10.8782 13.7036 10.6104 13.8792C10.3433 14.0548 10.2686 14.4217 10.4471 14.6848L12.1942 17.2631C12.7203 18.0384 13.7453 18.137 14.4155 17.4778L19.5127 12.4827C19.7396 12.2587 19.7396 11.883 19.5127 11.659C19.3989 11.547 19.2426 11.498 19.0939 11.498Z" fill="#FF7A00"/>
</svg>
