<svg width="92" height="41" viewBox="0 0 92 41" fill="none" xmlns="http://www.w3.org/2000/svg">
<path d="M52.8937 20.5C51.8632 20.5 50.9091 20.3357 50.0313 20.0071C49.1725 19.6785 48.4283 19.2145 47.7986 18.6153C47.1879 17.9967 46.7013 17.2718 46.3387 16.4406C45.9952 15.6094 45.8235 14.6815 45.8235 13.657C45.8235 12.6325 45.9952 11.7046 46.3387 10.8734C46.7013 10.0229 47.1975 9.29797 47.8272 8.69873C48.4569 8.09948 49.2012 7.63555 50.0599 7.30693C50.9377 6.97831 51.8823 6.814 52.8937 6.814C53.9242 6.814 54.8688 6.97831 55.7275 7.30693C56.6053 7.63555 57.3591 8.10915 57.9888 8.72772C58.6186 9.32697 59.1052 10.0519 59.4487 10.9024C59.7922 11.7336 59.9639 12.6518 59.9639 13.657C59.9639 14.7009 59.7826 15.648 59.42 16.4986C59.0575 17.3298 58.5613 18.045 57.9316 18.6443C57.3018 19.2242 56.5576 19.6785 55.6989 20.0071C54.8402 20.3357 53.9051 20.5 52.8937 20.5ZM52.8937 17.4554C53.9433 17.4554 54.7638 17.0978 55.3554 16.3826C55.947 15.6674 56.2427 14.7588 56.2427 13.657C56.2427 12.5552 55.9565 11.6563 55.384 10.9604C54.8115 10.2452 53.9814 9.88755 52.8937 9.88755C51.8251 9.88755 50.9949 10.2452 50.4034 10.9604C49.8118 11.6756 49.516 12.5745 49.516 13.657C49.516 14.1789 49.5924 14.6719 49.745 15.1358C49.8977 15.5997 50.1171 16.0057 50.4034 16.3536C50.6896 16.7016 51.0427 16.9722 51.4625 17.1655C51.8823 17.3588 52.3594 17.4554 52.8937 17.4554Z" fill="black"/>
<path d="M67.8539 20.5C67.0715 20.5 66.3082 20.3357 65.564 20.0071C64.8388 19.6785 64.19 19.2145 63.6175 18.6153C63.0641 18.016 62.6157 17.3008 62.2722 16.4696C61.9287 15.6191 61.757 14.6815 61.757 13.657C61.757 12.6325 61.9192 11.7046 62.2436 10.8734C62.5871 10.0229 63.0355 9.29797 63.5889 8.69873C64.1614 8.09948 64.8102 7.63555 65.5354 7.30693C66.2796 6.97831 67.0525 6.814 67.8539 6.814C68.7508 6.814 69.5619 6.98798 70.287 7.33593C71.0122 7.66455 71.5942 8.08015 72.0331 8.58275V0H75.5825V20.297H72.2335V18.4993C71.7564 19.0985 71.1362 19.5818 70.3729 19.9491C69.6096 20.3164 68.7699 20.5 67.8539 20.5ZM68.7985 17.4265C69.7718 17.4265 70.5446 17.0882 71.1171 16.4116C71.7087 15.7157 72.014 14.8168 72.0331 13.715V13.338C71.9949 12.3522 71.6801 11.55 71.0885 10.9314C70.516 10.2935 69.7527 9.97454 68.7985 9.97454C68.3596 9.97454 67.9398 10.0519 67.5391 10.2065C67.1383 10.3612 66.7853 10.5931 66.48 10.9024C66.1746 11.2117 65.9361 11.5983 65.7644 12.0622C65.5926 12.5262 65.5067 13.0578 65.5067 13.657C65.5067 14.8168 65.8121 15.735 66.4227 16.4116C67.0525 17.0882 67.8444 17.4265 68.7985 17.4265Z" fill="black"/>
<path d="M85.2924 20.5C84.2429 20.5 83.2792 20.3357 82.4014 20.0071C81.5426 19.6785 80.7984 19.2242 80.1687 18.6443C79.5389 18.045 79.0523 17.3395 78.7088 16.5276C78.3653 15.6964 78.1936 14.7782 78.1936 13.773C78.1936 12.7098 78.3749 11.7529 78.7374 10.9024C79.1 10.0325 79.5962 9.29797 80.2259 8.69873C80.8556 8.09948 81.5903 7.63555 82.43 7.30693C83.2696 6.97831 84.1665 6.814 85.1207 6.814C86.1511 6.814 87.0671 6.99764 87.8686 7.36492C88.6892 7.71287 89.3761 8.2058 89.9296 8.84371C90.483 9.46228 90.9028 10.1968 91.189 11.0474C91.4944 11.8786 91.647 12.7775 91.647 13.744V14.4979H81.6285C81.8002 15.5224 82.2296 16.3053 82.9166 16.8465C83.6227 17.3878 84.51 17.6584 85.5787 17.6584C86.342 17.6584 87.048 17.5231 87.6969 17.2525C88.3648 16.9625 88.9182 16.5662 89.3571 16.0637L91.3321 17.8904C90.6642 18.7409 89.8055 19.3885 88.756 19.8331C87.7064 20.2777 86.5519 20.5 85.2924 20.5ZM84.9775 9.71358C84.1379 9.71358 83.4318 9.94555 82.8593 10.4095C82.3059 10.8541 81.9243 11.492 81.7144 12.3232H88.2407C88.1262 11.5886 87.7827 10.9701 87.2102 10.4675C86.6378 9.96488 85.8935 9.71358 84.9775 9.71358Z" fill="black"/>
<path d="M52.8235 38.5882C51.8033 38.5882 50.8586 38.429 49.9895 38.1105C49.1393 37.792 48.4025 37.3423 47.779 36.7615C47.1744 36.162 46.6926 35.4594 46.3336 34.6538C45.9935 33.8482 45.8235 32.9489 45.8235 31.9559C45.8235 30.9629 45.9935 30.0636 46.3336 29.258C46.6926 28.4336 47.1838 27.731 47.8073 27.1502C48.4308 26.5694 49.1676 26.1198 50.0179 25.8013C50.887 25.4828 51.8222 25.3235 52.8235 25.3235C53.8438 25.3235 54.779 25.4828 55.6292 25.8013C56.4983 26.1198 57.2446 26.5788 57.8681 27.1783C58.4916 27.7591 58.9734 28.4617 59.3135 29.2861C59.6536 30.0917 59.8236 30.9816 59.8236 31.9559C59.8236 32.9676 59.6441 33.8856 59.2851 34.71C58.9262 35.5156 58.4349 36.2088 57.8114 36.7896C57.188 37.3517 56.4511 37.792 55.6009 38.1105C54.7507 38.429 53.8249 38.5882 52.8235 38.5882ZM52.8235 35.6374C53.8627 35.6374 54.6751 35.2908 55.2608 34.5976C55.8465 33.9044 56.1394 33.0238 56.1394 31.9559C56.1394 30.8879 55.856 30.0168 55.2892 29.3423C54.7223 28.6491 53.9005 28.3025 52.8235 28.3025C51.7655 28.3025 50.9436 28.6491 50.3579 29.3423C49.7722 30.0355 49.4794 30.9067 49.4794 31.9559C49.4794 32.4617 49.555 32.9395 49.7061 33.3891C49.8573 33.8388 50.0745 34.2322 50.3579 34.5695C50.6413 34.9067 50.9909 35.169 51.4065 35.3564C51.8222 35.5437 52.2945 35.6374 52.8235 35.6374Z" fill="black"/>
<path d="M68.939 25.3797C69.0902 25.3797 69.2602 25.3891 69.4491 25.4078C69.6381 25.4078 69.8176 25.4266 69.9876 25.464V28.6678C69.7798 28.6116 69.553 28.5648 69.3074 28.5273C69.0618 28.4898 68.8162 28.4711 68.5706 28.4711C67.607 28.4711 66.9174 28.7615 66.5017 29.3423C66.0861 29.9043 65.8783 30.7381 65.8783 31.8435V38.3915H62.3641V25.5483H65.7082V27.4875C65.9538 26.9441 66.3317 26.457 66.8418 26.0261C67.3519 25.5952 68.051 25.3797 68.939 25.3797Z" fill="black"/>
<path d="M78.1202 38.5882C77.081 38.5882 76.1269 38.429 75.2578 38.1105C74.4076 37.792 73.6707 37.3517 73.0472 36.7896C72.4238 36.2088 71.942 35.525 71.6019 34.7381C71.2618 33.9325 71.0918 33.0425 71.0918 32.0683C71.0918 31.0378 71.2713 30.1104 71.6302 29.2861C71.9892 28.443 72.4804 27.731 73.1039 27.1502C73.7274 26.5694 74.4548 26.1198 75.2861 25.8013C76.1175 25.4828 77.0054 25.3235 77.9501 25.3235C78.9704 25.3235 79.8773 25.5015 80.6708 25.8575C81.4832 26.1947 82.1634 26.6725 82.7113 27.2907C83.2592 27.8903 83.6749 28.6022 83.9583 29.4266C84.2606 30.2322 84.4117 31.1034 84.4117 32.0402V32.7709H74.4926C74.6626 33.7638 75.0878 34.5226 75.7679 35.0472C76.467 35.5718 77.3455 35.8341 78.4036 35.8341C79.1593 35.8341 79.8584 35.703 80.5008 35.4407C81.162 35.1596 81.7099 34.7756 82.1445 34.2884L84.1 36.0589C83.4387 36.8833 82.5885 37.5109 81.5493 37.9419C80.5102 38.3728 79.3671 38.5882 78.1202 38.5882ZM77.8084 28.1338C76.9771 28.1338 76.278 28.3587 75.7112 28.8083C75.1633 29.2392 74.7855 29.8575 74.5776 30.6631H81.0392C80.9259 29.9512 80.5858 29.3516 80.019 28.8645C79.4522 28.3774 78.7153 28.1338 77.8084 28.1338Z" fill="black"/>
<path d="M0 9.73318C0 5.02368 3.81781 1.20587 8.52731 1.20587H31.2668C35.9763 1.20587 39.7941 5.02368 39.7941 9.73318V32.4727C39.7941 37.1822 35.9763 41 31.2668 41H8.52731C3.81781 41 0 37.1822 0 32.4727V9.73318Z" fill="black"/>
<path d="M22.818 33.7647C20.8043 33.7647 18.9779 33.4594 17.3389 32.849C15.7232 32.215 14.3417 31.3462 13.1944 30.2426C12.0704 29.1391 11.1924 27.8124 10.5602 26.2627C9.95137 24.713 9.64697 23.0224 9.64697 21.191C9.64697 19.3595 9.96308 17.6689 10.5953 16.1192C11.2275 14.546 12.1173 13.1959 13.2646 12.0689C14.412 10.9418 15.7935 10.0613 17.4091 9.42734C19.0248 8.76989 20.816 8.44116 22.7829 8.44116C24.4688 8.44116 25.9557 8.66423 27.2435 9.11035C28.5547 9.55648 29.7372 10.1552 30.7909 10.9066L28.8943 14.3582C28.0747 13.7712 27.1732 13.3368 26.1898 13.055C25.2064 12.7498 24.2112 12.5972 23.2044 12.5972C21.9634 12.5972 20.816 12.8085 19.7623 13.2311C18.7087 13.6303 17.7955 14.2056 17.0228 14.957C16.2501 15.6848 15.6413 16.5771 15.1964 17.6337C14.7749 18.6668 14.5642 19.8056 14.5642 21.0501C14.5642 22.3415 14.7749 23.5155 15.1964 24.5721C15.6413 25.6053 16.2501 26.4975 17.0228 27.2489C17.8189 27.9768 18.7555 28.5403 19.8326 28.9395C20.9331 29.3386 22.1507 29.5382 23.4854 29.5382C24.422 29.5382 25.4171 29.4091 26.4708 29.1508C27.5245 28.869 28.4845 28.3407 29.3509 27.5659L31.3529 30.9471C30.4865 31.7219 29.3274 32.3911 27.8757 32.9546C26.4474 33.4947 24.7615 33.7647 22.818 33.7647Z" fill="white"/>
<path d="M23.4678 27.7353C22.461 27.7353 21.5478 27.5754 20.7283 27.2556C19.9204 26.9235 19.2297 26.4685 18.656 25.8904C18.0941 25.3123 17.655 24.6174 17.3389 23.8057C17.0345 22.9939 16.8823 22.1084 16.8823 21.1491C16.8823 20.1897 17.0404 19.3042 17.3565 18.4924C17.6726 17.6684 18.1175 16.9612 18.6911 16.3708C19.2648 15.7804 19.9556 15.3192 20.7634 14.9871C21.5712 14.6428 22.4668 14.4706 23.4503 14.4706C24.2932 14.4706 25.0367 14.5874 25.6806 14.8211C26.3362 15.0548 26.9274 15.3684 27.4543 15.762L26.506 17.57C26.0962 17.2625 25.6455 17.035 25.1537 16.8874C24.662 16.7275 24.1644 16.6475 23.661 16.6475C23.0405 16.6475 22.4668 16.7582 21.94 16.9796C21.4132 17.1887 20.9566 17.49 20.5702 17.8836C20.1839 18.2649 19.8795 18.7323 19.657 19.2857C19.4463 19.8269 19.3409 20.4234 19.3409 21.0753C19.3409 21.7517 19.4463 22.3667 19.657 22.9201C19.8795 23.4613 20.1839 23.9287 20.5702 24.3223C20.9683 24.7035 21.4366 24.9987 21.9751 25.2078C22.5254 25.4169 23.1342 25.5214 23.8015 25.5214C24.2698 25.5214 24.7674 25.4538 25.2942 25.3185C25.8211 25.1709 26.3011 24.8942 26.7343 24.4883L27.7353 26.2594C27.3021 26.6653 26.7226 27.0158 25.9967 27.311C25.2825 27.5938 24.4396 27.7353 23.4678 27.7353Z" fill="url(#paint0_linear_66_451)"/>
<defs>
<linearGradient id="paint0_linear_66_451" x1="15.6764" y1="22.3088" x2="31.3529" y2="22.3088" gradientUnits="userSpaceOnUse">
<stop stop-color="white" stop-opacity="0"/>
<stop offset="1" stop-color="white"/>
</linearGradient>
</defs>
</svg>
